squats_1_grf
version=1
nRows=30
nColumns=19
inDegrees=no
endheader
time	ground_force_left_vx	ground_force_left_vy	ground_force_left_vz	ground_force_left_px	ground_force_left_py	ground_force_left_pz	ground_force_left_mx	ground_force_left_my	ground_force_left_mz	ground_force_right_vx	ground_force_right_vy	ground_force_right_vz	ground_force_right_px	ground_force_right_py	ground_force_right_pz	ground_force_right_mx	ground_force_right_my	ground_force_right_mz
     22.84000000	     12.89588338	    284.58187645	     29.04428316	     -2.34387786	      0.00998140	      2.26459232	     -0.00128106	      0.65336502	     -0.00163382	      8.90242961	    329.88593608	    -37.21564822	     -2.32780215	      0.01038212	      2.71071016	     -0.00050022	      0.40530520	      0.00121110
     22.84100000	     12.74128668	    283.97755255	     29.00425461	     -2.34387462	      0.00998129	      2.26454632	     -0.00128979	      0.65781510	     -0.00164494	      8.89132361	    329.38083630	    -37.19994464	     -2.32783709	      0.01038200	      2.71073894	     -0.00049268	      0.39919688	      0.00119285
     22.84200000	     12.58250639	    283.37345981	     28.96403391	     -2.34387129	      0.00998118	      2.26450006	     -0.00129794	      0.66197536	     -0.00165535	      8.87455978	    328.88103217	    -37.18031902	     -2.32786950	      0.01038187	      2.71076751	     -0.00048525	      0.39318019	      0.00117487
     22.84300000	     12.41987018	    282.76980505	     28.92379198	     -2.34386794	      0.00998107	      2.26445354	     -0.00130553	      0.66584209	     -0.00166502	      8.85216451	    328.38760464	    -37.15709733	     -2.32789934	      0.01038175	      2.71079588	     -0.00047794	      0.38725013	      0.00115715
     22.84400000	     12.25372650	    282.16684203	     28.88370924	     -2.34386461	      0.00998096	      2.26440675	     -0.00131252	      0.66941042	     -0.00167394	      8.82422129	    327.90157181	    -37.13063075	     -2.32792657	      0.01038163	      2.71082406	     -0.00047072	      0.38140213	      0.00113968
     22.84500000	     12.08444480	    281.56486887	     28.84397314	     -2.34386137	      0.00998085	      2.26435968	     -0.00131892	      0.67267439	     -0.00168210	      8.79087030	    327.42387565	    -37.10129196	     -2.32795119	      0.01038152	      2.71085206	     -0.00046360	      0.37563201	      0.00112244
     22.84600000	     11.91241553	    280.96422471	     28.80477552	     -2.34385825	      0.00998074	      2.26431234	     -0.00132471	      0.67562705	     -0.00168948	      8.75230722	    326.95536984	    -37.06947124	     -2.32797321	      0.01038141	      2.71087992	     -0.00045657	      0.36993597	      0.00110542
     22.84700000	     11.73804985	    280.36528580	     28.76630997	     -2.34385533	      0.00998063	      2.26426473	     -0.00132988	      0.67826065	     -0.00169607	      8.70878156	    326.49680878	    -37.03557231	     -2.32799264	      0.01038130	      2.71090764	     -0.00044962	      0.36431062	      0.00108861
     22.84800000	     11.56177908	    279.76846107	     28.72876908	     -2.34385265	      0.00998051	      2.26421686	     -0.00133440	      0.68056678	     -0.00170184	      8.66059438	    326.04883809	    -37.00000794	     -2.32800954	      0.01038120	      2.71093524	     -0.00044276	      0.35875289	      0.00107200
     22.84900000	     11.38405374	    279.17418712	     28.69234185	     -2.34385027	      0.00998040	      2.26416872	     -0.00133826	      0.68253667	     -0.00170676	      8.60809533	    325.61198666	    -36.96319545	     -2.32802396	      0.01038110	      2.71096273	     -0.00043599	      0.35326011	      0.00105559
     22.85000000	     11.20534221	    278.58292284	     28.65721111	     -2.34384824	      0.00998028	      2.26412032	     -0.00134145	      0.68416137	     -0.00171083	      8.55167919	    325.18666046	    -36.92555204	     -2.32803600	      0.01038100	      2.71099013	     -0.00042928	      0.34782992	      0.00103936
     22.85100000	     11.02612906	    277.99514355	     28.62355118	     -2.34384664	      0.00998016	      2.26407167	     -0.00134394	      0.68543201	     -0.00171400	      8.49178181	    324.77313815	    -36.88749014	     -2.32804576	      0.01038091	      2.71101745	     -0.00042266	      0.34246035	      0.00102332
     22.85200000	     10.84691291	    277.41133476	     28.59152571	     -2.34384551	      0.00998004	      2.26402278	     -0.00134572	      0.68634011	     -0.00171627	      8.42887553	    324.37156856	    -36.84941273	     -2.32805337	      0.01038081	      2.71104470	     -0.00041610	      0.33714977	      0.00100745
     22.85300000	     10.66820399	    276.83198555	     28.56128584	     -2.34384493	      0.00997992	      2.26397365	     -0.00134677	      0.68687779	     -0.00171762	      8.36346415	    323.98197011	    -36.81170865	     -2.32805897	      0.01038073	      2.71107188	     -0.00040962	      0.33189693	      0.00099175
     22.85400000	     10.49052136	    276.25758159	     28.53296864	     -2.34384496	      0.00997980	      2.26392428	     -0.00134709	      0.68703811	     -0.00171802	      8.29607751	    323.60423219	    -36.77474817	     -2.32806274	      0.01038064	      2.71109901	     -0.00040321	      0.32670095	      0.00097622
     22.85500000	     10.31438983	    275.68859780	     28.50669590	     -2.34384568	      0.00997967	      2.26387469	     -0.00134665	      0.68681523	     -0.00171746	      8.22726565	    323.23811839	    -36.73887859	     -2.32806484	      0.01038056	      2.71112607	     -0.00039686	      0.32156134	      0.00096087
     22.85600000	     10.14033667	    275.12549078	     28.48257328	     -2.34384714	      0.00997954	      2.26382486	     -0.00134545	      0.68620477	     -0.00171594	      8.15759279	    322.88327162	    -36.70442005	     -2.32806549	      0.01038048	      2.71115308	     -0.00039059	      0.31647799	      0.00094568
     22.85700000	      9.96888812	    274.56869100	     28.46068975	     -2.34384944	      0.00997941	      2.26377481	     -0.00134349	      0.68520400	     -0.00171343	      8.08763095	    322.53922098	    -36.67166170	     -2.32806488	      0.01038040	      2.71118003	     -0.00038439	      0.31145115	      0.00093066
     22.85800000	      9.80056580	    274.01859489	     28.44111746	     -2.34385265	      0.00997928	      2.26372452	     -0.00134076	      0.68381204	     -0.00170995	      8.01795357	    322.20539021	    -36.64085804	     -2.32806325	      0.01038032	      2.71120693	     -0.00037825	      0.30648140	      0.00091581
     22.85900000	      9.63588304	    273.47555702	     28.42391180	     -2.34385683	      0.00997915	      2.26367399	     -0.00133727	      0.68203007	     -0.00170550	      7.94912882	    321.88110762	    -36.61222566	     -2.32806083	      0.01038024	      2.71123378	     -0.00037219	      0.30156963	      0.00090113
     22.86000000	      9.47534109	    272.93988240	     28.40911187	     -2.34386209	      0.00997901	      2.26362322	     -0.00133301	      0.67986142	     -0.00170007	      7.88171309	    321.56561720	    -36.58594037	     -2.32805784	      0.01038016	      2.71126058	     -0.00036620	      0.29671698	      0.00088663
     22.86100000	      9.31942540	    272.41181903	     28.39674105	     -2.34386848	      0.00997887	      2.26357219	     -0.00132801	      0.67731161	     -0.00169370	      7.81624432	    321.25809075	    -36.56213472	     -2.32805453	      0.01038009	      2.71128734	     -0.00036029	      0.29192472	      0.00087231
     22.86200000	      9.16860188	    271.89155114	     28.38680796	     -2.34387610	      0.00997873	      2.26352089	     -0.00132228	      0.67438839	     -0.00168639	      7.75323559	    320.95764074	    -36.54089598	     -2.32805114	      0.01038001	      2.71131405	     -0.00035445	      0.28719420	      0.00085817
     22.86300000	      9.02331319	    271.37919290	     28.37930744	     -2.34388502	      0.00997858	      2.26346932	     -0.00131584	      0.67110162	     -0.00167817	      7.69316886	    320.66333358	    -36.52226471	     -2.32804791	      0.01037994	      2.71134073	     -0.00034869	      0.28252671	      0.00084423
     22.86400000	      8.88397523	    270.87478312	     28.37422169	     -2.34389532	      0.00997843	      2.26341744	     -0.00130870	      0.66746315	     -0.00166907	      7.63648897	    320.37420319	    -36.50623372	     -2.32804504	      0.01037986	      2.71136738	     -0.00034301	      0.27792335	      0.00083047
     22.86500000	      8.75097372	    270.37828097	     28.37152161	     -2.34390707	      0.00997828	      2.26336525	     -0.00130091	      0.66348661	     -0.00165913	      7.58359814	    320.08926447	    -36.49274779	     -2.32804276	      0.01037978	      2.71139401	     -0.00033741	      0.27338489	      0.00081691
     22.86600000	      8.62466100	    269.88956285	     28.37116807	     -2.34392034	      0.00997812	      2.26331272	     -0.00129248	      0.65918722	     -0.00164837	      7.53485073	    319.80752653	    -36.48170396	     -2.32804127	      0.01037971	      2.71142064	     -0.00033188	      0.26891168	      0.00080354
     22.86700000	      8.50535312	    269.40842070	     28.37311335	     -2.34393519	      0.00997796	      2.26325984	     -0.00128345	      0.65458145	     -0.00163686	      7.49054863	    319.52800543	    -36.47295248	     -2.32804074	      0.01037963	      2.71144728	     -0.00032644	      0.26450347	      0.00079037
     22.86800000	      8.39332718	    268.93456177	     28.37730255	     -2.34395168	      0.00997779	      2.26320659	     -0.00127385	      0.64968672	     -0.00162462	      7.45093721	    319.24973630	    -36.46629847	     -2.32804134	      0.01037955	      2.71147395	     -0.00032108	      0.26015934	      0.00077739
     22.86900000	      8.28881895	    268.46761013	     28.38367496	     -2.34396985	      0.00997762	      2.26315295	     -0.00126372	      0.64452110	     -0.00161170	      7.41620186	    318.97178471	    -36.46150429	     -2.32804318	      0.01037947	      2.71150066	     -0.00031580	      0.25587759	      0.00076460
